[h264 @ 0x561b88f2c180] Reinit context to 864x480, pix_fmt: yuv420p
Input #0, mov,mp4,m4a,3gp,3g2,mj2, from '/var/www/html/project/media/video/original/video5965191193066212920.mp4':
  Metadata:
    major_brand     : isom
    minor_version   : 512
    compatible_brands: isomiso2avc1mp41
    creation_time   : 2023-05-09T07:17:01.000000Z
  Duration: 00:01:06.77, start: 0.000000, bitrate: 2088 kb/s
    Stream #0:0(eng): Audio: aac (LC) (mp4a / 0x6134706D), 48000 Hz, stereo, fltp, 244 kb/s (default)
    Metadata:
      creation_time   : 2023-05-09T07:15:04.000000Z
      handler_name    : SoundHandle
    Stream #0:1(eng): Video: h264 (Baseline), 1 reference frame (avc1 / 0x31637661), yuv420p(tv, smpte170m/bt470bg/smpte170m, left), 854x480 (864x480), 1835 kb/s, 30 fps, 30 tbr, 90k tbn, 180k tbc (default)
    Metadata:
      creation_time   : 2023-05-09T07:15:04.000000Z
      handler_name    : VideoHandle
Input #1, png_pipe, from '/var/www/html/project/static/images/templates/logo.png':
  Duration: N/A, bitrate: N/A
    Stream #1:0: Video: png, 1 reference frame, rgba(pc), 1920x1080 [SAR 2835:2835 DAR 16:9], 25 tbr, 25 tbn, 25 tbc
[h264 @ 0x561b88f9a280] Reinit context to 1280x720, pix_fmt: yuv420p
Input #2, mov,mp4,m4a,3gp,3g2,mj2, from '/var/www/html/project/static/images/templates/Codino.mp4':
  Metadata:
    major_brand     : mp42
    minor_version   : 1
    compatible_brands: isommp41mp42
    creation_time   : 2021-07-11T07:02:58.000000Z
  Duration: 00:00:02.00, start: 0.000000, bitrate: 1007 kb/s
    Stream #2:0(ita): Audio: aac (LC) (mp4a / 0x6134706D), 44100 Hz, stereo, fltp, 102 kb/s (default)
    Metadata:
      creation_time   : 2021-07-11T07:02:58.000000Z
      handler_name    : Core Media Audio
    Stream #2:1(und): Video: h264 (High), 1 reference frame (avc1 / 0x31637661), yuv420p(tv, bt709, progressive, left), 1280x720 [SAR 1:1 DAR 16:9], 813 kb/s, 25 fps, 25 tbr, 25k tbn, 50k tbc (default)
    Metadata:
      creation_time   : 2021-07-11T07:02:58.000000Z
      handler_name    : Core Media Video
[Parsed_scale_0 @ 0x561b88fc2100] w:1280 h:720 flags:'bilinear' interl:0
[Parsed_scale_2 @ 0x561b88fadcc0] w:1280 h:720 flags:'bilinear' interl:0
[Parsed_scale_4 @ 0x561b88f85400] w:1280 h:720 flags:'bilinear' interl:0
Stream mapping:
  Stream #0:0 (aac) -> concat:in0:a0
  Stream #0:1 (h264) -> scale
  Stream #1:0 (png) -> scale
  Stream #2:0 (aac) -> concat:in1:a0
  Stream #2:1 (h264) -> scale
  concat:out:v0 -> Stream #0:0 (libx264)
  concat:out:a0 -> Stream #0:1 (aac)
Press [q] to stop, [?] for help
[h264 @ 0x561b88f7f240] Reinit context to 864x480, pix_fmt: yuv420p
[h264 @ 0x561b893dac40] Reinit context to 1280x720, pix_fmt: yuv420p
[Parsed_scale_0 @ 0x561b89f404c0] w:1280 h:720 flags:'bilinear' interl:0
[Parsed_scale_2 @ 0x561b89f48e40] w:1280 h:720 flags:'bilinear' interl:0
[Parsed_scale_4 @ 0x561b89f49f80] w:1280 h:720 flags:'bilinear' interl:0
[graph 0 input from stream 0:1 @ 0x561b89f4e6c0] w:854 h:480 pixfmt:yuv420p tb:1/90000 fr:30/1 sar:0/1 sws_param:flags=2
[graph 0 input from stream 1:0 @ 0x561b89f4f740] w:1920 h:1080 pixfmt:rgba tb:1/25 fr:25/1 sar:2835/2835 sws_param:flags=2
[graph 0 input from stream 2:1 @ 0x561b89f507c0] w:1280 h:720 pixfmt:yuv420p tb:1/25000 fr:25/1 sar:1/1 sws_param:flags=2
[graph_0_in_0_0 @ 0x561b89f51780] tb:1/48000 samplefmt:fltp samplerate:48000 chlayout:0x3
[graph_0_in_2_0 @ 0x561b89f528c0] tb:1/44100 samplefmt:fltp samplerate:44100 chlayout:0x3
[Parsed_concat_7 @ 0x561b89f4c740] auto-inserting filter 'auto_resampler_0' between the filter 'graph_0_in_2_0' and the filter 'Parsed_concat_7'
[Parsed_scale_0 @ 0x561b89f404c0] w:854 h:480 fmt:yuv420p sar:0/1 -> w:1280 h:720 fmt:yuv420p sar:0/1 flags:0x2
[Parsed_setsar_1 @ 0x561b89f40b80] w:1280 h:720 sar:0/1 dar:16/9 -> sar:1/1 dar:16/9
[Parsed_scale_2 @ 0x561b89f48e40] w:1920 h:1080 fmt:rgba sar:2835/2835 -> w:1280 h:720 fmt:yuva420p sar:1/1 flags:0x2
[Parsed_setsar_3 @ 0x561b89f492c0] w:1280 h:720 sar:1/1 dar:16/9 -> sar:1/1 dar:16/9
[Parsed_overlay_6 @ 0x561b89f4b600] main w:1280 h:720 fmt:yuv420p overlay w:1280 h:720 fmt:yuva420p
[Parsed_overlay_6 @ 0x561b89f4b600] [framesync @ 0x561b89f4b728] Selected 1/90000 time base
[Parsed_overlay_6 @ 0x561b89f4b600] [framesync @ 0x561b89f4b728] Sync level 2
[Parsed_scale_4 @ 0x561b89f49f80] w:1280 h:720 fmt:yuv420p sar:1/1 -> w:1280 h:720 fmt:yuv420p sar:1/1 flags:0x2
[Parsed_setsar_5 @ 0x561b89f4aa40] w:1280 h:720 sar:1/1 dar:16/9 -> sar:1/1 dar:16/9
[auto_resampler_0 @ 0x561b89f59e40] ch:2 chl:stereo fmt:fltp r:44100Hz -> ch:2 chl:stereo fmt:fltp r:48000Hz
[libx264 @ 0x561b88f6dd80] using SAR=1/1
[libx264 @ 0x561b88f6dd80] using cpu capabilities: MMX2 SSE2Fast SSSE3 SSE4.2 AVX FMA3 BMI2 AVX2
[libx264 @ 0x561b88f6dd80] profile High, level 3.1
[libx264 @ 0x561b88f6dd80] 264 - core 155 r2917 0a84d98 - H.264/MPEG-4 AVC codec - Copyleft 2003-2018 - http://www.videolan.org/x264.html - options: cabac=1 ref=1 deblock=1:0:0 analyse=0x3:0x113 me=hex subme=2 psy=1 psy_rd=1.00:0.00 mixed_ref=0 me_range=16 chroma_me=1 trellis=0 8x8dct=1 cqm=0 deadzone=21,11 fast_pskip=1 chroma_qp_offset=0 threads=22 lookahead_threads=5 sliced_threads=0 nr=0 decimate=1 interlaced=0 bluray_compat=0 constrained_intra=0 bframes=3 b_pyramid=2 b_adapt=1 b_bias=0 direct=1 weightb=1 open_gop=0 weightp=1 keyint=250 keyint_min=25 scenecut=40 intra_refresh=0 rc_lookahead=10 rc=crf mbtree=1 crf=18.0 qcomp=0.60 qpmin=0 qpmax=69 qpstep=4 ip_ratio=1.40 aq=1:1.00
Output #0, mp4, to '/var/www/html/project/media/video/watermarks/video5965191193066212920.mp4':
  Metadata:
    major_brand     : isom
    minor_version   : 512
    compatible_brands: isomiso2avc1mp41
    encoder         : Lavf58.29.100
    Stream #0:0: Video: h264 (libx264), 1 reference frame (avc1 / 0x31637661), yuv420p(progressive), 1280x720 [SAR 1:1 DAR 16:9], q=-1--1, 30 fps, 15360 tbn, 30 tbc (default)
    Metadata:
      encoder         : Lavc58.54.100 libx264
    Side data:
      cpb: bitrate max/min/avg: 0/0/0 buffer size: 0 vbv_delay: -1
    Stream #0:1: Audio: aac (LC) (mp4a / 0x6134706D), 48000 Hz, stereo, fltp, delay 1024, 128 kb/s (default)
    Metadata:
      encoder         : Lavc58.54.100 aac
[Parsed_concat_7 @ 0x561b89f4c740] EOF on in0:a0, 1 streams left in segment.
[Parsed_overlay_6 @ 0x561b89f4b600] [framesync @ 0x561b89f4b728] Sync level 0
[Parsed_concat_7 @ 0x561b89f4c740] EOF on in0:v0, 0 streams left in segment.
[Parsed_concat_7 @ 0x561b89f4c740] Segment finished at pts=66766333
[Parsed_concat_7 @ 0x561b89f4c740] EOF on in1:v0, 1 streams left in segment.
[Parsed_concat_7 @ 0x561b89f4c740] EOF on in1:a0, 0 streams left in segment.
[Parsed_concat_7 @ 0x561b89f4c740] Segment finished at pts=68785020
No more output streams to write to, finishing.
frame= 2053 fps= 89 q=-1.0 Lsize=   31222kB time=00:01:08.80 bitrate=3717.6kbits/s speed=2.98x    
[AVIOContext @ 0x561b88f24440] Statistics: 0 seeks, 46 writeouts
video:30069kB audio:1079kB subtitle:0kB other streams:0kB global headers:0kB muxing overhead: 0.236010%
Input file #0 (/var/www/html/project/media/video/original/video5965191193066212920.mp4):
  Input stream #0:0 (audio): 3129 packets read (2044132 bytes); 3129 frames decoded (3204096 samples); 
  Input stream #0:1 (video): 2003 packets read (15320857 bytes); 2003 frames decoded; 
  Total: 5132 packets (17364989 bytes) demuxed
Input file #1 (/var/www/html/project/static/images/templates/logo.png):
  Input stream #1:0 (video): 1 packets read (111578 bytes); 1 frames decoded; 
  Total: 1 packets (111578 bytes) demuxed
Input file #2 (/var/www/html/project/static/images/templates/Codino.mp4):
  Input stream #2:0 (audio): 89 packets read (26579 bytes); 87 frames decoded (89024 samples); 
  Input stream #2:1 (video): 50 packets read (203365 bytes); 50 frames decoded; 
  Total: 139 packets (229944 bytes) demuxed
Output file #0 (/var/www/html/project/media/video/watermarks/video5965191193066212920.mp4):
  Output stream #0:0 (video): 2053 frames encoded; 2053 packets muxed (30790510 bytes); 
  Output stream #0:1 (audio): 3225 frames encoded (3301681 samples); 3226 packets muxed (1105167 bytes); 
  Total: 5279 packets (31895677 bytes) muxed
[AVIOContext @ 0x561b88faec00] Statistics: 2 seeks, 125 writeouts
[libx264 @ 0x561b88f6dd80] frame I:13    Avg QP:15.47  size:102942
[libx264 @ 0x561b88f6dd80] frame P:786   Avg QP:19.32  size: 27518
[libx264 @ 0x561b88f6dd80] frame B:1254  Avg QP:23.29  size:  6238
[libx264 @ 0x561b88f6dd80] consecutive B-frames: 16.1%  6.1%  3.5% 74.2%
[libx264 @ 0x561b88f6dd80] mb I  I16..4: 10.3% 12.5% 77.2%
[libx264 @ 0x561b88f6dd80] mb P  I16..4:  0.8%  2.2%  1.9%  P16..4: 45.1% 17.6% 15.1%  0.0%  0.0%    skip:17.5%
[libx264 @ 0x561b88f6dd80] mb B  I16..4:  0.4%  1.1%  0.9%  B16..8: 19.1%  7.1%  0.9%  direct:12.9%  skip:57.8%  L0:31.1% L1:46.4% BI:22.5%
[libx264 @ 0x561b88f6dd80] 8x8 transform intra:40.0% inter:38.4%
[libx264 @ 0x561b88f6dd80] coded y,uvDC,uvAC intra: 75.5% 83.0% 42.0% inter: 23.2% 16.9% 0.6%
[libx264 @ 0x561b88f6dd80] i16 v,h,dc,p: 61% 22% 11%  6%
[libx264 @ 0x561b88f6dd80] i8 v,h,dc,ddl,ddr,vr,hd,vl,hu: 21% 25% 14%  5%  7%  7%  8%  6%  7%
[libx264 @ 0x561b88f6dd80] i4 v,h,dc,ddl,ddr,vr,hd,vl,hu: 23% 21% 10%  6%  9%  9%  8%  7%  7%
[libx264 @ 0x561b88f6dd80] i8c dc,h,v,p: 43% 22% 22% 13%
[libx264 @ 0x561b88f6dd80] Weighted P-Frames: Y:6.9% UV:0.6%
[libx264 @ 0x561b88f6dd80] kb/s:3581.95
[aac @ 0x561b88f834c0] Qavg: 1504.397
[AVIOContext @ 0x561b88f2d3c0] Statistics: 17489402 bytes read, 2 seeks
[AVIOContext @ 0x561b88f35dc0] Statistics: 111578 bytes read, 0 seeks
[AVIOContext @ 0x561b88f8b300] Statistics: 1530915 bytes read, 42 seeks
